# xmcd
#
# Track frame offsets: 
#        150
#        13346
#        24676
#        36987
#        53594
#        82948
#        96469
#        112808
#        126862
#        143409
#        156782
#
# Disc length: 2347 seconds
#
# Revision: 0
# Processed by: cddbd v1.5.2PL0 Copyright (c) Steve Scherf et al.
# Submitted via: ExactAudioCopyFreeDBPlugin 1.0
#
DISCID=8609290b
DTITLE=Alex Behning - Hinterhofschuhe Aus New York
DYEAR=2014
DGENRE=Blues
TTITLE0=Funf Finger Blues
TTITLE1=Hinterzimmerferngesprach
TTITLE2=Den Rest Zu Fub
TTITLE3=Zeit Steht Still
TTITLE4=Auf Dunnem Eis
TTITLE5=Desiree
TTITLE6=Vom Immer Ins Vielleicht
TTITLE7=Auf Und Davon
TTITLE8=Alles So Wie Immer Ungefahr
TTITLE9=Abfahrt Nach Liverpool
TTITLE10=Ich Denke Noch An Dich
EXTD=
EXTT0=
EXTT1=
EXTT2=
EXTT3=
EXTT4=
EXTT5=
EXTT6=
EXTT7=
EXTT8=
EXTT9=
EXTT10=
PLAYORDER=
